<svg width="2776" height="1663" viewBox="0 0 2776 1663" fill="none" xmlns="http://www.w3.org/2000/svg">
<g clip-path="url(#clip0_420_235)">
<path d="M1044.84 12.8428C990.711 12.8428 944.045 44.7809 922.655 90.8394L573.942 651.89C558.336 677 551.428 706.549 554.285 735.976L566.516 861.958C573.215 930.954 631.206 983.588 700.527 983.588H910.195V1037.92C910.195 1112.28 970.477 1172.56 1044.84 1172.56H1250.93C1310.57 1172.56 1361.15 1133.79 1378.85 1080.07C1458.46 1152.08 1560.08 1184.79 1671.91 1184.79C1789.95 1184.79 1896.59 1148.06 1977.74 1066.8C2010.56 1096.97 2048.57 1121.13 2090.14 1139.87C2090.55 1140.05 2090.95 1140.23 2091.35 1140.41C2159.65 1170.39 2232.44 1184.79 2308.15 1184.79C2429.06 1184.79 2541.13 1155.58 2631.92 1084.76C2726.73 1010.81 2775.49 907.563 2775.49 787.79C2775.49 711.964 2755.16 638.587 2707.08 576.499C2705.95 575.032 2704.81 573.576 2703.67 572.132C2740.47 517.965 2761.42 456.128 2761.42 389.052C2761.42 273.257 2717.63 170.654 2625.79 97.3138C2537.84 27.0785 2426.67 0 2308.15 0C2235.55 0 2165.72 13.695 2100.53 42.8185C2055.79 62.6462 2015.38 89.0345 1980.96 122.493C1899.1 38.6021 1790.84 0.611563 1670.69 0.611563C1559.34 0.611563 1458.09 33.0849 1378.59 104.564C1360.67 51.2482 1310.29 12.8428 1250.93 12.8428H1044.84Z" fill="#E1E9FA"/>
<path d="M2289.91 288.07L2274.05 288.07C2218.82 288.07 2174.05 332.842 2174.05 388.07V782.017H2289.91V519.779C2353.89 519.779 2405.76 467.909 2405.76 403.925C2405.76 339.94 2353.89 288.07 2289.91 288.07Z" fill="#D8E0F0"/>
<g style="mix-blend-mode:multiply" filter="url(#filter0_d_420_235)">
<circle cx="2289.9" cy="403.924" r="56.3616" fill="white"/>
</g>
<rect x="1136.06" y="1050.52" width="915.876" height="122.117" transform="rotate(-90 1136.06 1050.52)" fill="#EBF1FC"/>
<g style="mix-blend-mode:multiply" filter="url(#filter1_d_420_235)">
<rect x="815.109" y="857.948" width="154.994" height="496.295" transform="rotate(-90 815.109 857.948)" fill="white"/>
</g>
<circle cx="2289.91" cy="779.669" r="115.854" fill="#D8E0F0"/>
<path fill-rule="evenodd" clip-rule="evenodd" d="M2107.46 782.8C2120.38 720.298 2127.08 656.246 2127.08 591.015C2127.08 527.416 2120.71 464.939 2108.42 403.925H2181.88V782.8H2107.46Z" fill="#D8E0F0"/>
<ellipse cx="1687.06" cy="988.004" rx="118.928" ry="14.7062" fill="#CFD7E6"/>
<path d="M1753.99 510.623C1755.05 510.625 1756.07 511.048 1756.82 511.799L1850.86 606.192C1851.61 606.943 1852.03 607.962 1852.03 609.022L1851.78 742.265C1851.78 743.326 1851.35 744.342 1850.6 745.091L1756.21 839.132C1755.46 839.88 1754.44 840.3 1753.38 840.298L1620.13 840.049C1619.07 840.048 1618.06 839.624 1617.31 838.873L1523.27 744.48C1522.52 743.729 1522.1 742.711 1522.1 741.65L1522.35 608.407C1522.35 607.346 1522.78 606.33 1523.53 605.581L1617.92 511.54C1618.67 510.792 1619.69 510.372 1620.75 510.374L1753.99 510.623Z" fill="#FBFCFE"/>
<path d="M1746.12 531.053C1747.19 531.055 1748.2 531.478 1748.95 532.23L1831.04 614.623C1831.79 615.375 1832.21 616.393 1832.2 617.454L1831.99 733.759C1831.98 734.82 1831.56 735.837 1830.81 736.585L1748.42 818.672C1747.66 819.421 1746.65 819.84 1745.59 819.838L1629.28 819.621C1628.22 819.619 1627.2 819.196 1626.45 818.445L1544.37 736.051C1543.62 735.299 1543.2 734.281 1543.2 733.22L1543.42 616.915C1543.42 615.854 1543.84 614.838 1544.59 614.089L1626.99 532.002C1627.74 531.253 1628.76 530.834 1629.82 530.836L1746.12 531.053Z" fill="url(#paint0_linear_420_235)"/>
<path d="M1604.64 689.906C1604.64 687.598 1603.82 685.8 1602.17 684.511C1600.55 683.223 1597.69 681.889 1593.58 680.51C1589.48 679.131 1586.12 677.798 1583.51 676.509C1575.03 672.343 1570.79 666.618 1570.79 659.335C1570.79 655.708 1571.84 652.516 1573.94 649.759C1576.07 646.972 1579.06 644.814 1582.93 643.285C1586.8 641.727 1591.14 640.947 1595.97 640.947C1600.67 640.947 1604.88 641.786 1608.6 643.465C1612.35 645.143 1615.25 647.541 1617.32 650.658C1619.39 653.745 1620.42 657.282 1620.42 661.268H1604.69C1604.69 658.601 1603.86 656.533 1602.22 655.064C1600.6 653.595 1598.39 652.861 1595.61 652.861C1592.79 652.861 1590.56 653.49 1588.91 654.749C1587.29 655.978 1586.48 657.552 1586.48 659.47C1586.48 661.148 1587.38 662.677 1589.18 664.056C1590.98 665.404 1594.14 666.813 1598.66 668.282C1603.19 669.72 1606.91 671.279 1609.81 672.957C1616.89 677.033 1620.42 682.653 1620.42 689.816C1620.42 695.541 1618.27 700.037 1613.95 703.304C1609.63 706.571 1603.71 708.204 1596.19 708.204C1590.89 708.204 1586.08 707.26 1581.76 705.372C1577.47 703.454 1574.24 700.846 1572.05 697.549C1569.89 694.222 1568.81 690.401 1568.81 686.085H1584.64C1584.64 689.592 1585.54 692.184 1587.34 693.863C1589.16 695.511 1592.12 696.335 1596.19 696.335C1598.8 696.335 1600.85 695.781 1602.35 694.672C1603.88 693.533 1604.64 691.944 1604.64 689.906Z" fill="url(#paint1_linear_420_235)"/>
<path d="M1681.74 654.03H1662.1V707.305H1646.32V654.03H1627.03V641.846H1681.74V654.03Z" fill="url(#paint2_linear_420_235)"/>
<path d="M1744.46 675.924C1744.46 682.308 1743.28 687.958 1740.91 692.874C1738.54 697.789 1735.17 701.58 1730.79 704.248C1726.45 706.885 1721.49 708.204 1715.91 708.204C1710.34 708.204 1705.39 706.93 1701.07 704.383C1696.76 701.805 1693.39 698.134 1690.96 693.368C1688.56 688.603 1687.3 683.133 1687.18 676.958V673.272C1687.18 666.858 1688.35 661.208 1690.69 656.323C1693.06 651.407 1696.43 647.616 1700.8 644.949C1705.21 642.281 1710.22 640.947 1715.82 640.947C1721.37 640.947 1726.31 642.266 1730.66 644.904C1735 647.541 1738.37 651.303 1740.77 656.188C1743.2 661.043 1744.43 666.618 1744.46 672.912V675.924ZM1728.41 673.182C1728.41 666.678 1727.32 661.748 1725.13 658.391C1722.97 655.004 1719.87 653.311 1715.82 653.311C1707.91 653.311 1703.73 659.245 1703.28 671.114L1703.23 675.924C1703.23 682.338 1704.3 687.269 1706.42 690.716C1708.55 694.162 1711.71 695.886 1715.91 695.886C1719.9 695.886 1722.97 694.192 1725.13 690.805C1727.29 687.419 1728.38 682.548 1728.41 676.194V673.182Z" fill="url(#paint3_linear_420_235)"/>
<path d="M1770.22 685.096V707.305H1754.44V641.846H1780.56C1785.56 641.846 1789.98 642.776 1793.82 644.634C1797.69 646.462 1800.67 649.085 1802.77 652.501C1804.9 655.888 1805.96 659.74 1805.96 664.056C1805.96 670.44 1803.67 675.55 1799.08 679.386C1794.53 683.193 1788.26 685.096 1780.29 685.096H1770.22ZM1770.22 672.912H1780.56C1783.62 672.912 1785.94 672.148 1787.53 670.619C1789.15 669.091 1789.95 666.933 1789.95 664.145C1789.95 661.088 1789.13 658.646 1787.48 656.817C1785.83 654.989 1783.59 654.06 1780.74 654.03H1770.22V672.912Z" fill="url(#paint4_linear_420_235)"/>
<path d="M1671.72 854.367C1671.72 851.542 1674.01 849.252 1676.83 849.252H1697.29C1700.12 849.252 1702.41 851.542 1702.41 854.367V983.526C1702.41 986.351 1700.12 988.641 1697.29 988.641H1676.83C1674.01 988.641 1671.72 986.351 1671.72 983.526V854.367Z" fill="#839DF0"/>
<path fill-rule="evenodd" clip-rule="evenodd" d="M2001.81 900.319C2001.81 898.103 2003.62 896.308 2005.84 896.308C2079.87 896.308 2137.25 913.161 2179.53 941.814C2221.85 970.487 2248.77 1010.79 2262.15 1057.15C2288.87 1149.69 2261.65 1266.22 2196.02 1363.82C2164.71 1410.37 2077.04 1570.32 2054.18 1657.56C2052.06 1665.65 2043.93 1664.75 2046.67 1654.63C2073.97 1554.13 2157.63 1406.47 2189.32 1359.36C2254.06 1263.09 2280.27 1148.99 2254.4 1059.36C2241.49 1014.63 2215.61 975.967 2174.99 948.444C2134.35 920.901 2078.66 904.33 2005.84 904.33C2003.62 904.33 2001.81 902.534 2001.81 900.319Z" fill="url(#paint5_linear_420_235)"/>
<path fill-rule="evenodd" clip-rule="evenodd" d="M1680.38 1051.37C1607.27 1056.72 1507.98 1054.23 1377.68 1038.19C1145.5 1009.59 836.181 1006.44 568.154 1057.07C434.14 1082.39 310.65 1121.12 212.332 1176.69C114.023 1232.26 41.1484 1304.52 7.79111 1396.82C7.03888 1398.9 4.73853 1399.98 2.65314 1399.23C0.567746 1398.48 -0.512994 1396.18 0.239236 1394.1C34.4523 1299.43 109.011 1225.89 208.375 1169.72C307.729 1113.56 432.15 1074.61 566.661 1049.2C835.685 998.376 1145.87 1001.56 1378.66 1030.23C1508.6 1046.24 1607.34 1048.68 1679.8 1043.38C1752.38 1038.08 1798.18 1025.03 1822.58 1010.41C1834.81 1003.08 1841.14 995.68 1843.25 989.168C1845.26 982.982 1843.71 976.853 1838.21 971.041C1832.59 965.086 1822.92 959.639 1809.38 955.692C1795.9 951.764 1778.86 949.407 1758.84 949.407C1756.62 949.407 1754.82 947.614 1754.82 945.401C1754.82 943.188 1756.62 941.395 1758.84 941.395C1779.46 941.395 1797.27 943.817 1811.63 948C1825.92 952.165 1837.08 958.164 1844.06 965.544C1851.16 973.065 1853.97 982.159 1850.89 991.639C1847.92 1000.79 1839.7 1009.5 1826.72 1017.28C1800.69 1032.87 1753.38 1046.04 1680.38 1051.37Z" fill="url(#paint6_linear_420_235)"/>
<path fill-rule="evenodd" clip-rule="evenodd" d="M1900.27 910.789C1900.49 910.753 1900.71 910.753 1900.93 910.789C1936.04 916.687 1972.4 928.625 2003.86 959.89C2004.94 960.962 2004.45 962.792 2002.98 963.191L1960.66 974.697C1959.91 974.899 1959.13 974.662 1958.61 974.087C1935.65 948.326 1888.53 930.143 1855.83 922.47C1853.64 921.956 1853.72 918.561 1855.93 918.191L1900.27 910.789ZM1982.61 1138.51C1981.93 1138.94 1981.06 1138.91 1980.4 1138.45L1931.57 1103.85C1930.47 1103.07 1930.44 1101.45 1931.51 1100.62C1958.29 1079.87 1981.63 1055.59 1977.69 1012.51C1977.59 1011.41 1978.38 1010.41 1979.48 1010.29L2029.33 1004.81C2030.14 1004.72 2030.92 1005.14 2031.3 1005.85C2054.36 1050.08 2027.13 1110.05 1982.61 1138.51ZM1930.42 1162.43C1931.49 1163.43 1931.17 1165.19 1929.83 1165.74C1887.72 1182.93 1828.86 1204.65 1779.85 1215.26C1779.25 1215.39 1778.63 1215.23 1778.16 1214.84L1727.25 1172.55C1725.97 1171.48 1726.47 1169.41 1728.1 1169.06C1775.5 1158.87 1851.45 1141.78 1890.07 1126.19C1890.8 1125.9 1891.61 1126.06 1892.18 1126.6L1930.42 1162.43ZM1718.33 1219.21C1719.55 1220.38 1718.86 1222.45 1717.18 1222.63C1662.88 1228.5 1600.18 1228.56 1546.97 1242.72C1546.49 1242.85 1545.98 1242.8 1545.54 1242.57L1480.43 1209.65C1478.83 1208.84 1479.02 1206.5 1480.75 1206C1540.14 1188.62 1615.64 1186.24 1675.68 1179.4C1676.27 1179.33 1676.86 1179.53 1677.29 1179.94L1718.33 1219.21ZM1492.93 1258.39C1494.51 1259.31 1494.15 1261.72 1492.37 1262.15C1448.06 1272.94 1378.09 1306.38 1338.33 1330.88C1337.86 1331.17 1337.32 1331.25 1336.79 1331.11L1252.02 1309.57C1250.4 1309.16 1249.98 1307.05 1251.32 1306.05C1318.05 1255.91 1385.67 1234.28 1429.76 1222.37C1430.28 1222.23 1430.81 1222.31 1431.28 1222.58L1492.93 1258.39ZM1285.15 1372.49C1286.7 1372.93 1287.14 1374.92 1285.93 1375.99C1254.21 1403.91 1229.23 1448.09 1204.55 1485.04C1204.14 1485.65 1203.44 1485.99 1202.71 1485.92L1078.19 1474.29C1076.68 1474.15 1075.87 1472.46 1076.72 1471.2C1105.72 1428.82 1156.68 1373.64 1197.14 1348.52C1197.61 1348.23 1198.18 1348.15 1198.71 1348.3L1285.15 1372.49Z" fill="url(#paint7_linear_420_235)"/>
</g>
<defs>
<filter id="filter0_d_420_235" x="2223.54" y="345.562" width="132.724" height="132.724" filterUnits="userSpaceOnUse" color-interpolation-filters="sRGB">
<feFlood flood-opacity="0" result="BackgroundImageFix"/>
<feColorMatrix in="SourceAlpha" type="matrix" values="0 0 0 0 0 0 0 0 0 0 0 0 0 0 0 0 0 0 127 0" result="hardAlpha"/>
<feOffset dy="8"/>
<feGaussianBlur stdDeviation="5"/>
<feComposite in2="hardAlpha" operator="out"/>
<feColorMatrix type="matrix" values="0 0 0 0 0.164706 0 0 0 0 0.164706 0 0 0 0 0.164706 0 0 0 0.15 0"/>
<feBlend mode="normal" in2="BackgroundImageFix" result="effect1_dropShadow_420_235"/>
<feBlend mode="normal" in="SourceGraphic" in2="effect1_dropShadow_420_235" result="shape"/>
</filter>
<filter id="filter1_d_420_235" x="805.109" y="700.954" width="516.295" height="174.994" filterUnits="userSpaceOnUse" color-interpolation-filters="sRGB">
<feFlood flood-opacity="0" result="BackgroundImageFix"/>
<feColorMatrix in="SourceAlpha" type="matrix" values="0 0 0 0 0 0 0 0 0 0 0 0 0 0 0 0 0 0 127 0" result="hardAlpha"/>
<feOffset dy="8"/>
<feGaussianBlur stdDeviation="5"/>
<feComposite in2="hardAlpha" operator="out"/>
<feColorMatrix type="matrix" values="0 0 0 0 0.164706 0 0 0 0 0.164706 0 0 0 0 0.164706 0 0 0 0.15 0"/>
<feBlend mode="normal" in2="BackgroundImageFix" result="effect1_dropShadow_420_235"/>
<feBlend mode="normal" in="SourceGraphic" in2="effect1_dropShadow_420_235" result="shape"/>
</filter>
<linearGradient id="paint0_linear_420_235" x1="1587.84" y1="575.472" x2="1785.73" y2="773.36" gradientUnits="userSpaceOnUse">
<stop stop-color="#CEDAF8"/>
<stop offset="1" stop-color="#A9BBF4"/>
</linearGradient>
<linearGradient id="paint1_linear_420_235" x1="1575.47" y1="629.298" x2="1750" y2="689.153" gradientUnits="userSpaceOnUse">
<stop stop-color="#839DF0"/>
<stop offset="1" stop-color="#5C7DEC"/>
</linearGradient>
<linearGradient id="paint2_linear_420_235" x1="1575.47" y1="629.298" x2="1750" y2="689.153" gradientUnits="userSpaceOnUse">
<stop stop-color="#839DF0"/>
<stop offset="1" stop-color="#5C7DEC"/>
</linearGradient>
<linearGradient id="paint3_linear_420_235" x1="1575.47" y1="629.298" x2="1750" y2="689.153" gradientUnits="userSpaceOnUse">
<stop stop-color="#839DF0"/>
<stop offset="1" stop-color="#5C7DEC"/>
</linearGradient>
<linearGradient id="paint4_linear_420_235" x1="1575.47" y1="629.298" x2="1750" y2="689.153" gradientUnits="userSpaceOnUse">
<stop stop-color="#839DF0"/>
<stop offset="1" stop-color="#5C7DEC"/>
</linearGradient>
<linearGradient id="paint5_linear_420_235" x1="2073.95" y1="1556.36" x2="2414.3" y2="1397.47" gradientUnits="userSpaceOnUse">
<stop stop-color="#FBFCFE"/>
<stop offset="0.359375" stop-color="#E2E7F8"/>
<stop offset="1" stop-color="#9EB2F2"/>
</linearGradient>
<linearGradient id="paint6_linear_420_235" x1="5.18936e-05" y1="1399.47" x2="1672.39" y2="715.553" gradientUnits="userSpaceOnUse">
<stop stop-color="#FBFCFE"/>
<stop offset="0.447917" stop-color="#E2E7F8"/>
<stop offset="1" stop-color="#839DF0"/>
</linearGradient>
<linearGradient id="paint7_linear_420_235" x1="1107.61" y1="1486.03" x2="2042.87" y2="1061.91" gradientUnits="userSpaceOnUse">
<stop stop-color="#FBFCFE"/>
<stop offset="1" stop-color="#CEDAF8"/>
</linearGradient>
<clipPath id="clip0_420_235">
<rect width="2776" height="1663" fill="white"/>
</clipPath>
</defs>
</svg>
