<svg width="282" height="282" viewBox="0 0 282 282" fill="none" xmlns="http://www.w3.org/2000/svg">
<path fill-rule="evenodd" clip-rule="evenodd" d="M140.625 281.625C218.29 281.625 281.25 218.665 281.25 141C281.25 63.335 218.29 0.375 140.625 0.375C62.96 0.375 0 63.335 0 141C0 218.665 62.96 281.625 140.625 281.625ZM140.312 51.5136C111.431 51.5136 88.0171 74.9158 88.0171 103.784C88.0171 132.652 111.431 156.054 140.312 156.054C169.194 156.054 192.608 132.652 192.608 103.784C192.608 74.9158 169.194 51.5136 140.312 51.5136ZM140.312 168.662C167.839 168.662 192.054 179.172 206.053 201.305C221.426 225.61 195.434 230.491 166.664 230.491L113.96 230.491C85.1913 230.491 59.1985 225.61 74.5718 201.305C88.5707 179.172 112.786 168.662 140.312 168.662Z" fill="#CACCD8"/>
</svg>
